<svg xmlns="http://www.w3.org/2000/svg" viewBox="0 0 1280 720" role="img" aria-labelledby="title desc">
  <title id="title">Auditoria</title>
  <desc id="desc">Ilustracao vetorial da tela de auditoria e historico.</desc>
  <rect width="1280" height="720" fill="#f4ecdf" />
  <rect x="60" y="70" width="1160" height="580" rx="34" fill="#fffaf3" stroke="#d9c8b1" />
  <rect x="60" y="70" width="1160" height="84" rx="34" fill="#18252b" />
  <rect x="100" y="200" width="250" height="360" rx="24" fill="#f7efe2" />
  <rect x="390" y="200" width="770" height="78" rx="20" fill="#f7efe2" />
  <rect x="390" y="310" width="770" height="78" rx="20" fill="#f7efe2" />
  <rect x="390" y="420" width="770" height="78" rx="20" fill="#f7efe2" />
  <circle cx="112" cy="112" r="8" fill="#ffba93" />
  <circle cx="138" cy="112" r="8" fill="#ffd8a6" />
  <circle cx="164" cy="112" r="8" fill="#b5e0d9" />
  <path d="M250 310a70 70 0 1 1 0 140a70 70 0 1 1 0-140zm0 30a40 40 0 1 0 0 80a40 40 0 1 0 0-80z" fill="#2f6b73" />
  <path d="M246 345h8v44h-8zm0 56h8v8h-8z" fill="#b85c2d" />
  <text x="130" y="128" font-family="Georgia, serif" font-size="40" font-weight="700" fill="#fff7eb">Auditoria do sistema</text>
  <text x="425" y="248" font-family="Segoe UI, Arial, sans-serif" font-size="24" fill="#5c615f">Usuario admin alterou permissao do documento 1024</text>
  <text x="425" y="358" font-family="Segoe UI, Arial, sans-serif" font-size="24" fill="#5c615f">Upload concluido no modulo ECM</text>
  <text x="425" y="468" font-family="Segoe UI, Arial, sans-serif" font-size="24" fill="#5c615f">Consulta ao historico realizada pelo setor juridico</text>
</svg>