<svg xmlns="http://www.w3.org/2000/svg" viewBox="0 0 1280 720" role="img" aria-labelledby="title desc">
  <title id="title">Configuracoes do usuario</title>
  <desc id="desc">Ilustracao vetorial da tela de configuracoes do usuario.</desc>
  <rect width="1280" height="720" fill="#f4ecdf" />
  <rect x="80" y="80" width="1120" height="560" rx="30" fill="#fffaf2" stroke="#d8c7b0" />
  <rect x="125" y="145" width="280" height="430" rx="24" fill="#f7efe2" />
  <rect x="455" y="145" width="625" height="430" rx="24" fill="#fbf7ef" stroke="#dccab2" />
  <circle cx="265" cy="250" r="76" fill="#2f6b73" opacity="0.88" />
  <rect x="170" y="365" width="190" height="18" rx="9" fill="#d7cab6" />
  <rect x="170" y="405" width="140" height="14" rx="7" fill="#e6dac7" />
  <rect x="515" y="215" width="505" height="58" rx="18" fill="#f4ecdf" />
  <rect x="515" y="305" width="505" height="58" rx="18" fill="#f4ecdf" />
  <rect x="515" y="395" width="505" height="58" rx="18" fill="#f4ecdf" />
  <rect x="845" y="500" width="175" height="52" rx="18" fill="#2f6b73" />
  <text x="515" y="128" font-family="Georgia, serif" font-size="40" font-weight="700" fill="#18252b">Preferencias do usuario</text>
  <text x="550" y="252" font-family="Segoe UI, Arial, sans-serif" font-size="22" fill="#5d635f">Idioma e regionalizacao</text>
  <text x="550" y="342" font-family="Segoe UI, Arial, sans-serif" font-size="22" fill="#5d635f">Senha e autenticacao</text>
  <text x="550" y="432" font-family="Segoe UI, Arial, sans-serif" font-size="22" fill="#5d635f">Notificacoes e preferencia visual</text>
  <text x="895" y="534" font-family="Segoe UI, Arial, sans-serif" font-size="22" font-weight="700" fill="#edf8f7">Atualizar</text>
</svg>