<svg xmlns="http://www.w3.org/2000/svg" viewBox="0 0 1280 720" role="img" aria-labelledby="title desc">
  <title id="title">Organizacao em pastas</title>
  <desc id="desc">Ilustracao vetorial da estrutura de pastas do sistema.</desc>
  <rect width="1280" height="720" fill="#f2e7d8" />
  <rect x="70" y="80" width="1140" height="560" rx="32" fill="#fff9f1" stroke="#d6c4ae" />
  <rect x="70" y="80" width="1140" height="76" rx="32" fill="#21343c" />
  <rect x="125" y="210" width="280" height="370" rx="24" fill="#f7efe2" />
  <rect x="460" y="210" width="680" height="370" rx="24" fill="#fbf6ef" stroke="#dccab0" />
  <g fill="#d9b16d">
    <path d="M170 255h82l18 20h78v112H170z" />
    <path d="M170 405h82l18 20h78v112H170z" />
    <path d="M510 250h92l20 22h88v126H510z" />
    <path d="M760 250h92l20 22h88v126H760z" />
    <path d="M510 430h92l20 22h88v126H510z" />
  </g>
  <path d="M700 342l84 0" stroke="#2f6b73" stroke-width="18" stroke-linecap="round" />
  <path d="M760 304l50 38-50 38" fill="none" stroke="#2f6b73" stroke-width="18" stroke-linecap="round" stroke-linejoin="round" />
  <text x="120" y="130" font-family="Georgia, serif" font-size="40" font-weight="700" fill="#fff7eb">Estrutura de pastas</text>
  <text x="125" y="192" font-family="Segoe UI, Arial, sans-serif" font-size="26" fill="#645d57">Arvore lateral</text>
  <text x="460" y="192" font-family="Segoe UI, Arial, sans-serif" font-size="26" fill="#645d57">Area de trabalho</text>
</svg>