<svg xmlns="http://www.w3.org/2000/svg" viewBox="0 0 1200 675" role="img" aria-label="Imagem da documentacao indisponivel">
  <defs>
    <linearGradient id="bg" x1="0" x2="1" y1="0" y2="1">
      <stop offset="0%" stop-color="#f7efe3" />
      <stop offset="100%" stop-color="#ead7bc" />
    </linearGradient>
    <linearGradient id="ink" x1="0" x2="1" y1="0" y2="1">
      <stop offset="0%" stop-color="#18252b" />
      <stop offset="100%" stop-color="#2f6b73" />
    </linearGradient>
  </defs>
  <rect width="1200" height="675" rx="32" fill="url(#bg)" />
  <g opacity="0.18">
    <path d="M0 100h1200M0 220h1200M0 340h1200M0 460h1200M0 580h1200" stroke="#18252b" stroke-width="2" />
    <path d="M140 0v675M320 0v675M500 0v675M680 0v675M860 0v675M1040 0v675" stroke="#18252b" stroke-width="2" />
  </g>
  <g transform="translate(195 120)">
    <rect x="0" y="0" width="520" height="360" rx="28" fill="#fffaf3" stroke="#cfb99a" stroke-width="4" />
    <rect x="44" y="44" width="240" height="18" rx="9" fill="#2f6b73" opacity="0.22" />
    <rect x="44" y="82" width="392" height="14" rx="7" fill="#18252b" opacity="0.14" />
    <rect x="44" y="112" width="348" height="14" rx="7" fill="#18252b" opacity="0.14" />
    <rect x="44" y="142" width="300" height="14" rx="7" fill="#18252b" opacity="0.14" />
    <rect x="44" y="200" width="432" height="116" rx="22" fill="#efe1cc" />
    <path d="M96 282l84-82 68 64 54-48 122 100" fill="none" stroke="#b85c2d" stroke-linecap="round" stroke-linejoin="round" stroke-width="14" />
    <circle cx="358" cy="226" r="22" fill="#2f6b73" opacity="0.75" />
  </g>
  <g transform="translate(760 144)">
    <rect width="240" height="280" rx="26" fill="url(#ink)" opacity="0.94" />
    <rect x="34" y="34" width="172" height="20" rx="10" fill="#fff7eb" opacity="0.9" />
    <rect x="34" y="76" width="154" height="14" rx="7" fill="#fff7eb" opacity="0.34" />
    <rect x="34" y="106" width="134" height="14" rx="7" fill="#fff7eb" opacity="0.34" />
    <rect x="34" y="160" width="170" height="72" rx="18" fill="#b85c2d" opacity="0.88" />
    <path d="M86 196h66" stroke="#fff8f1" stroke-linecap="round" stroke-width="12" />
    <path d="M70 240h102" stroke="#fff8f1" stroke-linecap="round" stroke-width="10" opacity="0.72" />
  </g>
  <text x="600" y="585" text-anchor="middle" fill="#18252b" font-family="Segoe UI, Arial, sans-serif" font-size="34" font-weight="700">Imagem ilustrativa ainda nao adicionada a documentacao</text>
</svg>